<svg width="768" height="1296" viewBox="0 0 768 1296" fill="none" xmlns="http://www.w3.org/2000/svg">
<path d="M104.452 9.66839C27.732 9.66839 20.2043 0 11.474 0C11.474 9.86175 11.474 19.4335 11.6785 26.6847C11.8829 33.936 12.2797 38.7219 12.0693 43.5803C9.86267 62.9412 5.74873 82.6812 8.07093 178.285C9.06901 219.376 8.6788 258.425 10.8848 317.824C14.2879 409.456 12.0262 467.218 11.6724 551.992C11.474 599.537 -0.201773 714.521 0.00265329 759.262C0.20708 804.002 2.91339 852.162 3.04116 873.466C3.64843 974.718 13.93 978.424 14.8831 1026.57C15.4904 1057.24 16.5098 1083.41 18.8995 1122.52C21.503 1165.14 7.0053 1257.83 27.762 1281.21C41.9697 1297.21 54.7903 1301.27 63.6089 1304.43C70.4211 1306.88 92.9371 1309.59 116.062 1304.39C141.105 1298.75 159.812 1292.33 165.437 1291.53C171.035 1290.73 176.242 1287.59 182.495 1286.69C199.523 1284.25 210.704 1280.47 220.338 1277.02C227.156 1274.58 243.174 1270.83 261.133 1274.63C268.667 1276.23 281.365 1276.23 309.588 1289.38C337.811 1302.53 380.272 1328.05 443.205 1342.46C506.139 1356.86 587.092 1360.05 629.204 1360.83C671.315 1361.6 674.486 1359.57 678.531 1359.21C687.333 1358.41 693.277 1355.23 696.742 1354.37C706.549 1351.93 712.297 1351.74 720.378 1343.88C727.016 1337.43 738.68 1348.53 749.226 1335.81C750.609 1334.14 763.762 1337.16 763.564 1283.81C763.365 1230.47 767.7 1160.09 767.905 1108.18C768.109 1056.26 760.307 1010.83 760.44 1001.85C761.047 960.781 757.52 938.94 758.789 915.997C760.394 886.968 760.116 842.852 760.44 742.508C760.638 681.041 768.978 583.498 767.905 526.127C766.498 450.907 768.312 420.544 767.905 392.233C766.907 322.886 755.605 217.078 754.012 187.518C751.018 131.973 751.898 77.8574 748 36.9816C747.386 30.5521 746.205 26.2843 744.578 26.5881L743.745 26.7437C730.892 29.1429 713.992 32.2977 707.908 34.6612C697.578 38.6735 681.738 30.2963 669.716 29.8028C650.284 29.0052 628.599 23.4293 613.457 16.0737C600.271 9.66839 593.11 1.78809 570.286 0.797642C551.906 0 517.382 0 498.689 1.64363C479.996 3.28725 477.218 6.47782 401.418 8.0731C325.618 9.66839 181.172 9.66839 104.452 9.66839Z" fill="#E8E7EA"/>
</svg>
